<?xml version="1.0" encoding="utf-8"?>
<!-- Generator: Adobe Illustrator 24.1.0, SVG Export Plug-In . SVG Version: 6.00 Build 0)  -->
<svg version="1.1" id="Capa_1" xmlns="http://www.w3.org/2000/svg" xmlns:xlink="http://www.w3.org/1999/xlink" x="0px" y="0px"
	 viewBox="0 0 512 512" style="enable-background:new 0 0 512 512;" xml:space="preserve">
<style type="text/css">
	.st0{fill:#FFFFFF;}
</style>
<g id="Page-1">
	<g id="_x30_30---Underwear-Pegs" transform="translate(-1)">
		<path id="Shape" class="st0" d="M43.7,281.6c-4.7,0-8.5,3.8-8.5,8.5v90.3L6.4,437.9c-12.6,25.3-2.4,56,22.9,68.7
			c12.1,6.1,26.2,7.1,39.1,2.8s23.5-13.5,29.6-25.7l34.1-68.3c3.2-6.6,5-13.8,5.2-21.1c0.1-0.6,0.2-1.2,0.2-1.8V290.1
			c0-4.7-3.8-8.5-8.5-8.5H98.4L118,262c3.2-3.3,3.2-8.7-0.1-12s-8.6-3.3-12-0.1l-11,11v-30.6h153.6v51.2h-34.1
			c-4.7,0-8.5,3.8-8.5,8.5v90.3l-28.7,57.4c-12.6,25.3-2.4,56,22.9,68.7c12.1,6.1,26.2,7.1,39.1,2.8s23.5-13.5,29.6-25.7l34.1-68.3
			c3.2-6.6,5-13.8,5.2-21.1c0.1-0.6,0.2-1.2,0.2-1.8V290.1c0-4.7-3.8-8.5-8.5-8.5h-30.6l19.6-19.6c3.2-3.3,3.2-8.7-0.1-12
			c-3.3-3.3-8.6-3.3-12-0.1l-11,11v-30.6h153.6v51.2H385c-4.7,0-8.5,3.8-8.5,8.5v90.3l-28.7,57.4c-12.6,25.3-2.4,56,22.9,68.7
			c12.1,6.1,26.2,7.1,39.1,2.8s23.5-13.5,29.6-25.7l34.1-68.3c3.2-6.6,5-13.8,5.2-21.1c0.1-0.6,0.2-1.2,0.2-1.8V290.1
			c0-4.7-3.8-8.5-8.5-8.5h-30.6l19.6-19.6c3.2-3.3,3.2-8.7-0.1-12c-3.3-3.3-8.6-3.3-12-0.1l-11,11v-30.6H479
			c18.9,0,34.1-15.3,34.1-34.1s-15.3-34.1-34.1-34.1h-7.4l-206-57.7V90.1c0.2-3.4,2.5-6.3,5.8-7.3c20.5-7.4,32.1-28.9,27.2-50.1
			C294.9,17,282.6,4.8,267,1.2c-12.8-3-26.2,0-36.5,8.2c-10.2,8.1-16.1,20.4-16.1,33.3c0,4.7,3.8,8.5,8.5,8.5s8.5-3.8,8.5-8.5
			c0-13,9.8-23.9,22.7-25.4c12.9-1.5,24.9,7,27.8,19.6c2.9,12.7-4.1,25.5-16.3,29.9c-10.1,3.3-17,12.7-17.1,23.3v14.3l-206,57.7
			h-7.4C16.3,162.1,1,177.4,1,196.3s15.3,34.1,34.1,34.1h42.7v51.2H43.7z M291.1,390.8c-0.1,0.6-0.2,1.1-0.2,1.7
			c0.1,5.3-1.1,10.5-3.4,15.3l-34.1,68.3c-5.3,11.1-16.2,18.5-28.5,19.3s-24.1-5.1-30.8-15.4s-7.4-23.5-1.7-34.4l29.6-59.2
			c0.6-1.2,0.9-2.5,0.9-3.8v-49.7h42.7c4.7,0,8.5-3.8,8.5-8.5s-3.8-8.5-8.5-8.5h-42.7v-17.1h68.3v92H291.1z M461.8,390.8
			c-0.1,0.6-0.2,1.1-0.2,1.7c0.1,5.3-1.1,10.5-3.4,15.3l-34.1,68.3c-5.3,11.1-16.2,18.5-28.5,19.3s-24.1-5.1-30.8-15.4
			c-6.7-10.3-7.4-23.5-1.7-34.4l29.6-59.2c0.6-1.2,0.9-2.5,0.9-3.8v-49.7h42.7c4.7,0,8.5-3.8,8.5-8.5s-3.8-8.5-8.5-8.5h-42.7v-17.1
			h68.3L461.8,390.8z M257,119.8l151.2,42.3H105.8L257,119.8z M18.1,196.3c0-9.4,7.6-17.1,17.1-17.1h443.7c9.4,0,17.1,7.6,17.1,17.1
			s-7.6,17.1-17.1,17.1H35.1C25.7,213.3,18.1,205.7,18.1,196.3z M120.5,390.8c-0.1,0.6-0.2,1.1-0.2,1.7c0.1,5.3-1.1,10.5-3.4,15.3
			l-34.1,68.3c-5.3,11.1-16.2,18.5-28.5,19.3s-24.1-5.1-30.8-15.4s-7.4-23.5-1.7-34.4l29.6-59.2c0.6-1.2,0.9-2.5,0.9-3.8v-49.7H95
			c4.7,0,8.5-3.8,8.5-8.5s-3.8-8.5-8.5-8.5H52.2v-17.1h68.3V390.8z"/>
	</g>
</g>
</svg>
