<?xml version="1.0" encoding="utf-8"?>
<!-- Generator: Adobe Illustrator 24.1.0, SVG Export Plug-In . SVG Version: 6.00 Build 0)  -->
<svg version="1.1" id="Capa_1" xmlns="http://www.w3.org/2000/svg" xmlns:xlink="http://www.w3.org/1999/xlink" x="0px" y="0px"
	 viewBox="0 0 512 512" style="enable-background:new 0 0 512 512;" xml:space="preserve">
<style type="text/css">
	.st0{fill:#FFFFFF;}
</style>
<g id="Busket-2">
	<path class="st0" d="M480,200h-48.2c10.9-14.1,10.9-33.9,0-48h0.2c22.1,0,40-17.9,40-40s-17.9-40-40-40h-24.2
		c5.3-6.9,8.2-15.3,8.2-24c0-22.1-17.9-40-40-40H152c-22.1,0-40,17.9-40,40s17.9,40,40,40h24.2c-10.9,14.1-10.9,33.9,0,48H96
		c-22.1,0-40,17.9-40,40c0,8.7,2.9,17.1,8.2,24H32c-4.4,0-8,3.6-8,8v48c0,4.4,3.6,8,8,8h25l27.4,205.3C87.1,489.1,104,504,124,504
		h264c20-0.1,36.9-14.9,39.6-34.7L455,264h25c4.4,0,8-3.6,8-8v-48C488,203.6,484.4,200,480,200z M128,48c0-13.3,10.7-24,24-24h224
		c13.3,0,24,10.7,24,24s-10.7,24-24,24H152C138.7,72,128,61.3,128,48z M184,112c0-13.3,10.7-24,24-24h224c13.3,0,24,10.7,24,24
		s-10.7,24-24,24H208C194.7,136,184,125.3,184,112z M72,176c0-13.3,10.7-24,24-24h304c13.3,0,24,10.7,24,24s-10.7,24-24,24H96
		C82.7,200,72,189.3,72,176z M411.8,467.2C410.1,479.1,400,488,388,488H124c-12,0-22.2-8.9-23.8-20.8L73.1,264h365.7L411.8,467.2z
		 M472,248H40v-32h432V248z"/>
	<path class="st0" d="M128,472h48c4.4,0,8-3.6,8-8s-3.6-8-8-8h-48c-4.4,0-8,3.6-8,8S123.6,472,128,472z"/>
	<path class="st0" d="M192,464c0,4.4,3.6,8,8,8h8c4.4,0,8-3.6,8-8s-3.6-8-8-8h-8C195.6,456,192,459.6,192,464z"/>
	<path class="st0" d="M224,320h64c4.4,0,8-3.6,8-8v-24c0-4.4-3.6-8-8-8h-64c-4.4,0-8,3.6-8,8v24C216,316.4,219.6,320,224,320z
		 M232,296h48v8h-48V296z"/>
	<path class="st0" d="M128,320h64c4.4,0,8-3.6,8-8v-24c0-4.4-3.6-8-8-8h-64c-4.4,0-8,3.6-8,8v24C120,316.4,123.6,320,128,320z
		 M136,296h48v8h-48V296z"/>
	<path class="st0" d="M320,320h64c4.4,0,8-3.6,8-8v-24c0-4.4-3.6-8-8-8h-64c-4.4,0-8,3.6-8,8v24C312,316.4,315.6,320,320,320z
		 M328,296h48v8h-48V296z"/>
	<path class="st0" d="M224,376h64c4.4,0,8-3.6,8-8v-24c0-4.4-3.6-8-8-8h-64c-4.4,0-8,3.6-8,8v24C216,372.4,219.6,376,224,376z
		 M232,352h48v8h-48V352z"/>
	<path class="st0" d="M128,376h64c4.4,0,8-3.6,8-8v-24c0-4.4-3.6-8-8-8h-64c-4.4,0-8,3.6-8,8v24C120,372.4,123.6,376,128,376z
		 M136,352h48v8h-48V352z"/>
	<path class="st0" d="M320,376h64c4.4,0,8-3.6,8-8v-24c0-4.4-3.6-8-8-8h-64c-4.4,0-8,3.6-8,8v24C312,372.4,315.6,376,320,376z
		 M328,352h48v8h-48V352z"/>
	<path class="st0" d="M224,432h64c4.4,0,8-3.6,8-8v-24c0-4.4-3.6-8-8-8h-64c-4.4,0-8,3.6-8,8v24C216,428.4,219.6,432,224,432z
		 M232,408h48v8h-48V408z"/>
	<path class="st0" d="M128,432h64c4.4,0,8-3.6,8-8v-24c0-4.4-3.6-8-8-8h-64c-4.4,0-8,3.6-8,8v24C120,428.4,123.6,432,128,432z
		 M136,408h48v8h-48V408z"/>
	<path class="st0" d="M320,432h64c4.4,0,8-3.6,8-8v-24c0-4.4-3.6-8-8-8h-64c-4.4,0-8,3.6-8,8v24C312,428.4,315.6,432,320,432z
		 M328,408h48v8h-48V408z"/>
</g>
</svg>
