<?xml version="1.0" encoding="utf-8"?>
<!-- Generator: Adobe Illustrator 24.1.0, SVG Export Plug-In . SVG Version: 6.00 Build 0)  -->
<svg version="1.1" id="Capa_1" xmlns="http://www.w3.org/2000/svg" xmlns:xlink="http://www.w3.org/1999/xlink" x="0px" y="0px"
	 viewBox="0 0 512 512" style="enable-background:new 0 0 512 512;" xml:space="preserve">
<style type="text/css">
	.st0{stroke:#FFFFFF;stroke-width:34;stroke-miterlimit:10;}
	.st1{fill:#FFFFFF;}
	.st2{fill:none;stroke:#FFFFFF;stroke-width:13;stroke-miterlimit:10;}
	.st3{fill:none;stroke:#FFFFFF;stroke-width:34;stroke-miterlimit:10;}
</style>
<line class="st0" x1="117.2" y1="429.9" x2="191.5" y2="429.9"/>
<path class="st1" d="M257,17H58.8c-22.9,0-41.4,16.7-41.4,37.3v403.5c0,20.6,18.5,37.3,41.4,37.3H257c22.8,0,41.3-16.8,41.4-37.3
	V54.3C298.3,33.7,279.8,17,257,17z M281.8,413v44.8c0,12.4-11.1,22.4-24.8,22.4H58.8C45,480.1,34,470,34,457.8v-43.3
	c-0.1-0.4-0.1-0.8-0.1-1.2c0-3.4-0.1-6.7,0.1-10.1c-0.2-0.5-0.3-1.1-0.3-1.7c0-1.2,0.2-2.3,0.6-3.4c0,0,0-0.1,0-0.2H34V100.6
	c-0.2-0.6-0.4-1.2-0.4-2c0.1-0.4,0.1-0.9,0.2-1.3c0,0,0-0.1,0-0.1c0.1-0.3,0.2-0.6,0.3-0.9c0-0.3,0-0.6,0-0.9
	c-0.1-0.6-0.2-1.2-0.3-1.9c-0.4-2.7,0-5.1,0.4-7.7c-0.1-0.6-0.2-1.1-0.1-1.7H34V54.3C34,41.8,45,31.9,58.8,31.9H257
	c13.7,0,24.8,10.1,24.8,22.4v29.9h-0.6c0,0,0,0,0,0.1c0.2,0.7,0.2,1.3,0.1,2c0,0.3-0.1,0.6-0.2,0.9c0,0.3,0,0.5,0,0.8
	c0.2,0.8,0.3,1.6,0.2,2.4c0.1,0.6,0.1,1.2,0,1.8c0.2,0.9,0.2,1.9,0,2.8c0,0.1-0.1,0.1-0.1,0.2c0,0.1,0,0.1,0,0.2c0,0.1,0,0.3,0,0.4
	c0.5,1.1,0.5,2.3,0,3.5h0.4V398h-0.9c0,0.2,0,0.4,0,0.6c0,0.4,0,0.7,0,1.1c1.1,4.4,1.3,9,0.5,13.4H281.8z"/>
<polygon class="st2" points="254.7,30.2 204.9,80.7 117.9,80.7 63.5,30.6 162.8,30.5 "/>
<rect x="25.1" y="127" class="st2" width="469.6" height="253.9"/>
<line class="st3" x1="65.4" y1="253.3" x2="132.6" y2="319"/>
<line class="st3" x1="258.9" y1="186.6" x2="122.4" y2="331.6"/>
<line class="st3" x1="301.3" y1="195.8" x2="375.6" y2="195.8"/>
<line class="st3" x1="120.5" y1="429.6" x2="194.9" y2="429.6"/>
<line class="st3" x1="301.3" y1="255" x2="419.5" y2="255"/>
<line class="st3" x1="301.3" y1="316.8" x2="462.1" y2="316.8"/>
</svg>
