<?xml version="1.0" encoding="utf-8"?>
<!-- Generator: Adobe Illustrator 24.1.0, SVG Export Plug-In . SVG Version: 6.00 Build 0)  -->
<svg version="1.1" id="Capa_1" xmlns="http://www.w3.org/2000/svg" xmlns:xlink="http://www.w3.org/1999/xlink" x="0px" y="0px"
	 viewBox="0 0 512 512" style="enable-background:new 0 0 512 512;" xml:space="preserve">
<style type="text/css">
	.st0{fill:#FFFFFF;}
</style>
<g id="Page-1">
	<g id="_x30_24---Cleaner">
		<path id="Shape" class="st0" d="M426.7,107.4V76.8c0-10.8-6.9-20.4-17.1-24V25.6C409.6,11.5,398.1,0,384,0h-51.2
			c-14.1,0-25.6,11.5-25.6,25.6v27.2c-10.2,3.6-17,13.2-17.1,24v30.6l-67.8,67.8c-11.3,11.2-17.6,26.4-17.5,42.3v30
			c0,6.1,3.3,11.7,8.5,14.7v175.4c-5.3,3-8.5,8.6-8.5,14.7v8.5c0,28.3,22.9,51.2,51.2,51.2h204.8c28.3,0,51.2-22.9,51.2-51.2V217.5
			c0-15.9-6.3-31.1-17.5-42.3L426.7,107.4z M324.3,25.6c0-4.7,3.8-8.5,8.5-8.5H384c4.7,0,8.5,3.8,8.5,8.5v25.6h-68.3L324.3,25.6
			L324.3,25.6z M307.2,76.8c0-4.7,3.8-8.5,8.5-8.5H401c4.7,0,8.5,3.8,8.5,8.5v25.6H307.2V76.8z M341.3,264.5c4.7,0,8.5,3.8,8.5,8.5
			v153.6c0,4.7-3.8,8.5-8.5,8.5H230.4V264.5H341.3z M494.9,460.8c0,18.9-15.3,34.1-34.1,34.1H256c-18.9,0-34.1-15.3-34.1-34.1v-8.5
			h119.5c14.1,0,25.6-11.5,25.6-25.6V273.1c0-14.1-11.5-25.6-25.6-25.6H221.9v-30c0-11.3,4.5-22.2,12.5-30.2l67.8-67.8h112.4
			l67.8,67.8c8,8,12.5,18.9,12.5,30.2L494.9,460.8z"/>
		<path id="Shape_1_" class="st0" d="M393.6,144c-10.1-9.7-26.1-9.7-36.2,0c-4.8,4.8-7.5,11.3-7.5,18.1s2.7,13.3,7.5,18.1l68.3,68.3
			c6.4,6.6,15.9,9.1,24.8,6.8c8.9-2.4,15.8-9.3,18.2-18.2s-0.2-18.4-6.8-24.8L393.6,144z M449.8,236.4c-3.4,3.2-8.7,3.2-12.1,0
			l-68.3-68.3c-2.2-2.1-3.1-5.3-2.3-8.3c0.8-3,3.1-5.3,6.1-6.1s6.2,0.1,8.3,2.3l68.3,68.3c1.6,1.6,2.5,3.8,2.5,6
			C452.3,232.7,451.4,234.8,449.8,236.4L449.8,236.4z"/>
		<path id="Shape_2_" class="st0" d="M18.2,358.4c-4.9,0-9.6,2.1-12.8,5.8s-4.7,8.6-4.1,13.4l12.1,97C16.1,496,34.2,512,55.7,512
			h84.8c21.5,0,39.6-16,42.3-37.4l12.1-97c0.6-4.8-0.8-9.6-4-13.2c-3.1-3.6-7.6-5.8-12.4-5.9c-0.1,0-0.1-0.1-0.2-0.1
			c-23.4-0.9-40.8-17.4-57.5-33.3c-3.1-3-6.2-5.9-9.2-8.7c-9.5-8.6-27.1-24.7-46.9-14.5c-10.3,6.5-18.1,16.5-21.7,28.2
			c-0.6,1.5-1.3,2.9-1.9,4.3c-3.4,9.7-9.7,18.1-18.1,24H18.2z M165.9,472.5c-1.6,12.8-12.5,22.4-25.4,22.4H55.7
			c-12.9,0-23.8-9.6-25.4-22.4l-2.5-20.2h31.9c4.7,0,8.5-3.8,8.5-8.5s-3.8-8.5-8.5-8.5h-34l-2.1-17.1h36.2c4.7,0,8.5-3.8,8.5-8.5
			s-3.8-8.5-8.5-8.5H21.4l-3.2-25.6h159.9L165.9,472.5z M56.6,341.5c0.7-1.5,1.4-3,2-4.6c2.3-8,7.2-15,14-19.8
			c8.5-4.4,17.5,2.8,27.5,11.9c3,2.7,6,5.5,9,8.4c7.6,7.5,15.6,14.5,24.1,20.9H47.4C51,353.1,54,347.4,56.6,341.5L56.6,341.5z"/>
		<path id="Shape_3_" class="st0" d="M145.1,213.3c-4.7,0-8.5,3.8-8.5,8.5v17.1c0,4.7,3.8,8.5,8.5,8.5s8.5-3.8,8.5-8.5v-17.1
			C153.6,217.2,149.8,213.3,145.1,213.3z"/>
		<path id="Shape_4_" class="st0" d="M136.5,290.1c0,4.7,3.8,8.5,8.5,8.5s8.5-3.8,8.5-8.5V273c0-4.7-3.8-8.5-8.5-8.5
			s-8.5,3.8-8.5,8.5V290.1z"/>
		<path id="Shape_5_" class="st0" d="M128,247.5h-17.1c-4.7,0-8.5,3.8-8.5,8.5c0,4.7,3.8,8.5,8.5,8.5H128c4.7,0,8.5-3.8,8.5-8.5
			C136.5,251.3,132.7,247.5,128,247.5z"/>
		<path id="Shape_6_" class="st0" d="M162.1,264.5h17.1c4.7,0,8.5-3.8,8.5-8.5c0-4.7-3.8-8.5-8.5-8.5h-17.1c-4.7,0-8.5,3.8-8.5,8.5
			C153.6,260.7,157.4,264.5,162.1,264.5z"/>
		<path id="Shape_7_" class="st0" d="M66.5,189.5l12.8,12.8c3.3,3.2,8.7,3.2,12-0.1s3.3-8.6,0.1-12l-12.8-12.8
			c-2.1-2.2-5.3-3.1-8.3-2.3s-5.3,3.1-6.1,6.1S64.3,187.4,66.5,189.5L66.5,189.5z"/>
		<path id="Shape_8_" class="st0" d="M40.9,163.9c2.1,2.2,5.3,3.1,8.3,2.3s5.3-3.1,6.1-6.1s-0.1-6.2-2.3-8.3L40.2,139
			c-3.3-3.2-8.7-3.2-12,0.1s-3.3,8.6-0.1,12L40.9,163.9z"/>
		<path id="Shape_9_" class="st0" d="M28.1,202.3c3.3,3.3,8.7,3.3,12.1,0L53,189.5c3.2-3.3,3.2-8.7-0.1-12s-8.6-3.3-12-0.1
			l-12.8,12.8C24.8,193.6,24.8,199,28.1,202.3L28.1,202.3z"/>
		<path id="Shape_10_" class="st0" d="M72.5,166.4c2.3,0,4.4-0.9,6-2.5l12.8-12.8c3.2-3.3,3.2-8.7-0.1-12c-3.3-3.3-8.6-3.3-12-0.1
			l-12.8,12.8c-2.4,2.4-3.2,6.1-1.8,9.3C66,164.3,69.1,166.4,72.5,166.4z"/>
	</g>
</g>
</svg>
