<?xml version="1.0" encoding="utf-8"?>
<!-- Generator: Adobe Illustrator 24.1.0, SVG Export Plug-In . SVG Version: 6.00 Build 0)  -->
<svg version="1.1" id="Capa_1" xmlns="http://www.w3.org/2000/svg" xmlns:xlink="http://www.w3.org/1999/xlink" x="0px" y="0px"
	 viewBox="0 0 512 512" style="enable-background:new 0 0 512 512;" xml:space="preserve">
<style type="text/css">
	.st0{fill:#FFFFFF;}
</style>
<g id="Page-1">
	<g id="_x30_23---Clean-Towels">
		<path id="Shape" class="st0" d="M512,145.1c0-33-26.8-59.7-59.7-59.7h-256c-5.2,0-10.5,0.7-15.5,2.1
			c-3.2,0.8-87.5,32.5-137.4,51.4h-0.1c-9.7,2.7-18.6,7.9-25.7,15.1C6.2,165.1-0.1,180.4,0,196.3c0,21,11.1,40.4,29.1,51.2
			C11.1,258.2,0,277.7,0,298.7s11.1,40.4,29.1,51.2C6,363.6-5,391.1,2.2,417c7.1,25.9,30.7,43.8,57.6,43.8h256
			c8.8,0,17.5-2,25.5-5.8c0.1,0,0.1,0,0.2,0l137.3-51.6c19.6-9.7,32.4-29.3,33.2-51.1c0.8-21.8-10.3-42.4-29.1-53.6
			c4.3-2.5,8.2-5.5,11.6-9c11.3-11.2,17.6-26.4,17.6-42.2c-0.1-21-11.1-40.4-29.1-51.1c4.2-2.5,8.1-5.5,11.6-9
			C505.7,176.2,512.1,160.9,512,145.1L512,145.1z M185.5,103.9c3.5-1,7.1-1.5,10.8-1.5h256c23.6,0,42.6,19.1,42.7,42.7
			c0.1,11.3-4.5,22.2-12.5,30.1c-2.9,3-6.3,5.5-10,7.4c-0.5,0.2-0.9,0.5-1.3,0.7c-11.5,4.3-31.8,11.9-63.2,23.7l-38,14.2
			c8.5-18.5,7-40-3.9-57.2c-11-17.1-29.9-27.5-50.3-27.5H97.9C140.4,120.5,182,105,185.5,103.9L185.5,103.9z M17.1,196.3
			c0-11.3,4.5-22.2,12.6-30.2c5.2-5.2,11.6-9,18.7-10.9c0.2-0.1,0.5-0.1,0.7-0.2c3.5-0.9,7.1-1.4,10.7-1.4h256
			c23.6,0,42.6,19.1,42.7,42.7c-0.1,16-9,30.6-23.1,37.9c-0.2,0.1-0.5,0.2-0.7,0.3c-5.8,2.9-12.3,4.4-18.8,4.4h-256
			C36.2,238.9,17.1,219.8,17.1,196.3L17.1,196.3z M17.1,298.7c0-23.5,19.1-42.6,42.7-42.7h256c23.6,0,42.6,19.1,42.7,42.7
			c-0.1,16-9,30.6-23.1,37.9c-0.2,0.1-0.5,0.2-0.7,0.3c-5.8,2.9-12.3,4.4-18.8,4.4h-256C36.2,341.3,17.1,322.2,17.1,298.7
			L17.1,298.7z M59.7,443.7C36.1,443.7,17,424.6,17,401s19.1-42.7,42.7-42.7h256c23.6,0,42.7,19.1,42.7,42.7s-19.1,42.7-42.7,42.7
			H59.7z M494.9,349.9c0.1,11.3-4.5,22.2-12.5,30.1c-3.1,3.1-6.6,5.7-10.5,7.8l-102.1,38.3c12.7-27.3,3-59.8-22.7-75.7l112.6-42.3
			C480.1,311.7,494.9,329.3,494.9,349.9L494.9,349.9z M494.9,247.5c0.1,11.3-4.5,22.2-12.5,30.1c-2.9,3-6.3,5.5-10,7.4
			c-0.5,0.3-0.9,0.5-1.3,0.7L370,323.6c12.6-27.3,2.9-59.8-22.8-75.6l66.7-25c19.5-7.3,34.6-13,46.1-17.3
			C480.1,209.4,494.8,226.9,494.9,247.5L494.9,247.5z"/>
		<path id="Shape_1_" class="st0" d="M332.8,196.3c0-4.7-3.8-8.5-8.5-8.5H51.2c-4.7,0-8.5,3.8-8.5,8.5s3.8,8.5,8.5,8.5h273.1
			C329,204.8,332.8,201,332.8,196.3z"/>
		<path id="Shape_2_" class="st0" d="M332.8,298.7c0-4.7-3.8-8.5-8.5-8.5H51.2c-4.7,0-8.5,3.8-8.5,8.5s3.8,8.5,8.5,8.5h273.1
			C329,307.2,332.8,303.4,332.8,298.7z"/>
		<path id="Shape_3_" class="st0" d="M324.3,392.5H51.2c-4.7,0-8.5,3.8-8.5,8.5s3.8,8.5,8.5,8.5h273.1c4.7,0,8.5-3.8,8.5-8.5
			S329,392.5,324.3,392.5z"/>
		<path id="Shape_4_" class="st0" d="M85.3,17.1c-4.7,0-8.5,3.8-8.5,8.5v17.1c0,4.7,3.8,8.5,8.5,8.5s8.5-3.8,8.5-8.5V25.6
			C93.9,20.9,90,17.1,85.3,17.1z"/>
		<path id="Shape_5_" class="st0" d="M76.8,93.9c0,4.7,3.8,8.5,8.5,8.5s8.5-3.8,8.5-8.5V76.8c0-4.7-3.8-8.5-8.5-8.5
			s-8.5,3.8-8.5,8.5V93.9z"/>
		<path id="Shape_6_" class="st0" d="M68.3,51.2H51.2c-4.7,0-8.5,3.8-8.5,8.5s3.8,8.5,8.5,8.5h17.1c4.7,0,8.5-3.8,8.5-8.5
			S73,51.2,68.3,51.2z"/>
		<path id="Shape_7_" class="st0" d="M102.4,68.3h17.1c4.7,0,8.5-3.8,8.5-8.5s-3.8-8.5-8.5-8.5h-17.1c-4.7,0-8.5,3.8-8.5,8.5
			S97.7,68.3,102.4,68.3z"/>
		<path id="Shape_8_" class="st0" d="M496.7,467.6c-3.3-3.2-8.7-3.2-12,0.1c-3.3,3.3-3.3,8.6-0.1,12l12.8,12.8
			c3.3,3.2,8.7,3.2,12-0.1c3.3-3.3,3.3-8.6,0.1-12L496.7,467.6z"/>
		<path id="Shape_9_" class="st0" d="M459,454c3.3,3.2,8.7,3.2,12-0.1s3.3-8.6,0.1-12l-12.8-12.8c-3.3-3.2-8.7-3.2-12,0.1
			s-3.3,8.6-0.1,12L459,454z"/>
		<path id="Shape_10_" class="st0" d="M446.2,492.4c3.3,3.3,8.7,3.3,12.1,0l12.8-12.8c3.2-3.3,3.2-8.7-0.1-12s-8.6-3.3-12-0.1
			l-12.8,12.8C442.9,483.7,442.9,489.1,446.2,492.4L446.2,492.4z"/>
		<path id="Shape_11_" class="st0" d="M497.4,429.2L484.6,442c-2.2,2.1-3.1,5.3-2.3,8.3c0.8,3,3.1,5.3,6.1,6.1
			c3,0.8,6.2-0.1,8.3-2.3l12.8-12.8c3.2-3.3,3.2-8.7-0.1-12C506.1,426,500.8,425.9,497.4,429.2L497.4,429.2z"/>
	</g>
</g>
</svg>
