<?xml version="1.0" encoding="utf-8"?>
<!-- Generator: Adobe Illustrator 24.1.0, SVG Export Plug-In . SVG Version: 6.00 Build 0)  -->
<svg version="1.1" id="Capa_1" xmlns="http://www.w3.org/2000/svg" xmlns:xlink="http://www.w3.org/1999/xlink" x="0px" y="0px"
	 viewBox="0 0 512 512" style="enable-background:new 0 0 512 512;" xml:space="preserve">
<style type="text/css">
	.st0{fill:#FFFFFF;}
</style>
<g id="Page-1">
	<g id="_x30_28---Laundry-Delivery" transform="translate(-1)">
		<path id="Shape" class="st0" d="M116.2,354.1c-16.5,0-29.9,13.4-29.9,29.9s13.4,29.9,29.9,29.9s29.9-13.4,29.9-29.9
			S132.7,354.1,116.2,354.1z M116.2,396.8c-7.1,0-12.8-5.7-12.8-12.8s5.7-12.8,12.8-12.8c7.1,0,12.8,5.7,12.8,12.8
			S123.3,396.8,116.2,396.8z"/>
		<path id="Shape_1_" class="st0" d="M397.8,354.1c-16.5,0-29.9,13.4-29.9,29.9s13.4,29.9,29.9,29.9s29.9-13.4,29.9-29.9
			S414.3,354.1,397.8,354.1z M397.8,396.8c-7.1,0-12.8-5.7-12.8-12.8s5.7-12.8,12.8-12.8s12.8,5.7,12.8,12.8
			S404.9,396.8,397.8,396.8z"/>
		<path id="Shape_2_" class="st0" d="M487.4,354.6V226.1c0-1.2-0.2-2.3-0.7-3.4l-46.8-109.2c-4.1-9.3-13.3-15.4-23.5-15.4h-99.7
			v-8.5c0-14.1-11.5-25.6-25.6-25.6H52.2c-14.1,0-25.6,11.5-25.6,25.6v265c-15.5,2.2-26.7,16-25.6,31.6s14.2,27.7,29.8,27.7h28.8
			c11.1,21,32.8,34.1,56.6,34.1s45.5-13.1,56.6-34.1h168.5c11.1,21,32.8,34.1,56.6,34.1c23.7,0,45.5-13.1,56.6-34.1h28.8
			c7.9,0,15.5-3.1,21.1-8.7c8-8,10.8-19.8,7.2-30.5C507.9,363.9,498.6,356.2,487.4,354.6L487.4,354.6z M470.3,294.4h-34.1v-17.1
			h34.1V294.4z M465.9,217.6H359.4v-68.3h77.3L465.9,217.6z M416.4,115.2c3.4,0,6.5,2,7.9,5.1l5.1,11.9h-70
			c-9.4,0-17.1,7.6-17.1,17.1v68.3c0,9.4,7.6,17.1,17.1,17.1h110.9v25.6h-34.1c-9.4,0-17.1,7.6-17.1,17.1v17.1
			c0,9.4,7.6,17.1,17.1,17.1h34.1v42.7h-16c-11.1-21-32.8-34.1-56.6-34.1c-23.7,0-45.5,13.1-56.6,34.1h-24.5V115.2H416.4z
			 M43.7,89.6c0-4.7,3.8-8.5,8.5-8.5h238.9c4.7,0,8.5,3.8,8.5,8.5v264.5H172.8c-11.1-21-32.8-34.1-56.6-34.1s-45.5,13.1-56.6,34.1
			h-16L43.7,89.6L43.7,89.6z M30.9,396.8c-7.1,0-12.8-5.7-12.8-12.8s5.7-12.8,12.8-12.8h22.6c-1.7,8.4-1.7,17.2,0,25.6L30.9,396.8
			L30.9,396.8z M116.2,430.9c-25.9,0-46.9-21-46.9-46.9s21-46.9,46.9-46.9s46.9,21,46.9,46.9S142.1,430.9,116.2,430.9z M178.9,396.8
			c1.7-8.4,1.7-17.2,0-25.6h156.2c-1.7,8.4-1.7,17.2,0,25.6H178.9z M397.8,430.9c-25.9,0-46.9-21-46.9-46.9s21-46.9,46.9-46.9
			s46.9,21,46.9,46.9C444.7,409.9,423.7,430.9,397.8,430.9z M492.2,393.1c-2.4,2.4-5.7,3.7-9.1,3.7h-22.6c1.7-8.4,1.7-17.2,0-25.6
			h22.6c5.2,0,9.9,3.1,11.9,7.9S495.9,389.4,492.2,393.1z"/>
		<path id="Shape_3_" class="st0" d="M350.9,268.8H385c4.7,0,8.5-3.8,8.5-8.5s-3.8-8.5-8.5-8.5h-34.1c-4.7,0-8.5,3.8-8.5,8.5
			C342.4,265,346.2,268.8,350.9,268.8z"/>
		<path id="Shape_4_" class="st0" d="M86.2,268.8h25.7v8.5c0,14.1,11.5,25.6,25.6,25.6h68.3c14.1,0,25.6-11.5,25.6-25.6v-8.5h25.7
			c6.8,0,13.3-2.7,18.1-7.5c4.8-4.8,7.5-11.3,7.5-18.1c0-8.2-3.9-15.8-10.5-20.6l-82.4-59.9c-2.8-2-6-3.5-9.4-4.2
			c-0.1-5.5,2.3-10.7,6.5-14.2c9.7-7.1,13.1-20.1,8.2-31.1c-4.9-11-16.9-17.1-28.7-14.5c-11.8,2.5-20.2,13-20.2,25
			c0,4.7,3.8,8.5,8.5,8.5s8.5-3.8,8.5-8.5s3.8-8.5,8.5-8.5s8.5,3.8,8.5,8.5c0,2.7-1.3,5.3-3.5,6.9c-8.5,6.7-13.5,17-13.5,27.9
			c-3.5,0.7-6.7,2.2-9.5,4.3l-82.5,59.9c-8.9,6.5-12.7,18-9.2,28.5C65.4,261.7,75.2,268.8,86.2,268.8L86.2,268.8z M214.3,277.3
			c0,4.7-3.8,8.5-8.5,8.5h-68.3c-4.7,0-8.5-3.8-8.5-8.5v-25.6c0-4.7,3.8-8.5,8.5-8.5h68.3c4.7,0,8.5,3.8,8.5,8.5V277.3z M81.3,236.5
			l82.5-59.9c1.4-1,3.2-1.6,4.9-1.6h6c1.8,0,3.5,0.6,5,1.6l82.4,59.9c2.2,1.6,3.5,4.1,3.5,6.8c0,2.2-0.9,4.4-2.5,6s-3.7,2.5-6,2.5
			h-25.7c0-14.1-11.5-25.6-25.6-25.6h-68.3c-14.1,0-25.6,11.5-25.6,25.6H86.2c-3.7,0-6.9-2.4-8-5.8
			C77.1,242.4,78.3,238.6,81.3,236.5L81.3,236.5z"/>
	</g>
</g>
</svg>
