<?xml version="1.0" encoding="utf-8"?>
<!-- Generator: Adobe Illustrator 19.2.1, SVG Export Plug-In . SVG Version: 6.00 Build 0)  -->
<svg version="1.1" id="Capa_1" xmlns="http://www.w3.org/2000/svg" xmlns:xlink="http://www.w3.org/1999/xlink" x="0px" y="0px"
	 viewBox="0 0 512 512" style="enable-background:new 0 0 512 512;" xml:space="preserve">
<style type="text/css">
	.st0{opacity:0.25;}
	.st1{fill:#37ACBF;}
</style>
<g id="Page-1" class="st0">
	<g id="_x30_18---Washing-Machine">
		<path id="Shape" class="st1" d="M469.3,0H42.7C19.1,0,0,19.1,0,42.7v426.7C0,492.9,19.1,512,42.7,512h426.7
			c23.6,0,42.6-19.1,42.7-42.7V42.7C512,19.1,492.9,0,469.3,0z M494.9,42.7v76.8h-273V17.1h247.5C483.5,17.1,494.9,28.5,494.9,42.7z
			 M42.7,17.1h162.1v102.4H17.1V42.7C17.1,28.5,28.5,17.1,42.7,17.1z M469.3,494.9H42.7c-14.1,0-25.6-11.5-25.6-25.6V136.5H495
			v332.8C494.9,483.5,483.5,494.9,469.3,494.9z"/>
		<path id="Shape_1_" class="st1" d="M59.7,93.9h102.4c9.4,0,17.1-7.6,17.1-17.1v-8.5c0-14.1-11.5-25.6-25.6-25.6H68.3
			c-14.1,0-25.6,11.5-25.6,25.6v8.5C42.7,86.2,50.3,93.9,59.7,93.9z M59.7,68.3c0-4.7,3.8-8.5,8.5-8.5h85.3c4.7,0,8.5,3.8,8.5,8.5
			v8.5H59.7V68.3z"/>
		<path id="Shape_2_" class="st1" d="M443.7,102.4c18.9,0,34.1-15.3,34.1-34.1s-15.3-34.1-34.1-34.1c-18.9,0-34.1,15.3-34.1,34.1
			S424.9,102.4,443.7,102.4z M443.7,51.2c9.4,0,17.1,7.6,17.1,17.1s-7.6,17.1-17.1,17.1c-9.4,0-17.1-7.6-17.1-17.1
			S434.3,51.2,443.7,51.2z"/>
		<path id="Shape_3_" class="st1" d="M358.4,102.4c18.9,0,34.1-15.3,34.1-34.1s-15.3-34.1-34.1-34.1c-18.9,0-34.1,15.3-34.1,34.1
			S339.5,102.4,358.4,102.4z M358.4,51.2c9.4,0,17.1,7.6,17.1,17.1s-7.6,17.1-17.1,17.1s-17.1-7.6-17.1-17.1S349,51.2,358.4,51.2z"
			/>
		<circle id="Oval" class="st1" cx="256" cy="68.3" r="8.5"/>
		<circle id="Oval_1_" class="st1" cx="290.1" cy="68.3" r="8.5"/>
		<path id="Shape_4_" class="st1" d="M256,153.6c-89.5,0-162.1,72.6-162.1,162.1S166.5,477.9,256,477.9s162.1-72.6,162.1-162.1
			C418,226.2,345.5,153.7,256,153.6z M256,460.8c-80.1,0-145.1-64.9-145.1-145.1s65-145,145.1-145s145.1,64.9,145.1,145.1
			C401,395.8,336.1,460.7,256,460.8z"/>
		<path id="Shape_5_" class="st1" d="M351,277.8c4.3-2.1,7.5-6,8.8-10.6c1.3-4.7,0.6-9.6-1.9-13.8c-29.2-47.8-87.8-68.9-140.8-50.7
			s-86.2,70.9-79.8,126.6s50.6,99.5,106.4,105.2c4.1,0.4,8.2,0.6,12.4,0.6c41.7,0.1,80.4-21.6,101.9-57.3c2.5-4.1,3.2-9,1.9-13.7
			c-1.3-4.6-4.5-8.5-8.8-10.6l-18.2-9.1v-57.7L351,277.8z M343.4,368.9v0.1c-22.8,37.4-66.8,56.2-109.5,46.7s-74.8-45-79.7-88.5
			c-0.2-1.6-0.2-3.2-0.3-4.8l0.5,0.3c15,12.3,33.8,18.9,53.2,18.6c19.4,0.3,38.3-6.3,53.3-18.6c12.1-10.3,27.5-15.8,43.4-15.5
			c3.8,0,7.6,0.3,11.4,0.9v36.5c0,6.5,3.6,12.4,9.4,15.3L343.4,368.9z M325.2,271.6c-5.8,2.9-9.5,8.8-9.4,15.3v3.9
			c-3.8-0.4-7.6-0.6-11.4-0.6c-19.4-0.3-38.2,6.3-53.2,18.6c-12.1,10.3-27.6,15.8-43.5,15.5c-15.9,0.3-31.3-5.2-43.4-15.5
			c-3.1-2.2-6.3-4.3-9.7-6.4c2.6-20.5,11.4-39.7,25.2-55c21.6-24.1,53.4-36.6,85.6-33.6c32.3,3,61.2,21.1,78,48.7L325.2,271.6z"/>
		<path id="Shape_6_" class="st1" d="M42.7,153.6c-4.7,0-8.5,3.8-8.5,8.5v17.1c0,4.7,3.8,8.5,8.5,8.5s8.5-3.8,8.5-8.5v-17.1
			C51.2,157.4,47.4,153.6,42.7,153.6z"/>
		<path id="Shape_7_" class="st1" d="M42.7,204.8c-4.7,0-8.5,3.8-8.5,8.5v179.2c0,4.7,3.8,8.5,8.5,8.5s8.5-3.8,8.5-8.5V213.3
			C51.2,208.6,47.4,204.8,42.7,204.8z"/>
	</g>
</g>
</svg>
