<?xml version="1.0" encoding="utf-8"?>
<!-- Generator: Adobe Illustrator 24.1.0, SVG Export Plug-In . SVG Version: 6.00 Build 0)  -->
<svg version="1.1" id="Capa_1" xmlns="http://www.w3.org/2000/svg" xmlns:xlink="http://www.w3.org/1999/xlink" x="0px" y="0px"
	 viewBox="0 0 512 512" style="enable-background:new 0 0 512 512;" xml:space="preserve">
<style type="text/css">
	.st0{fill:#FFFFFF;}
</style>
<g id="Page-1">
	<g id="_x30_33---Washing-Machine">
		<path id="Shape" class="st0" d="M256,0C114.6,0,0,114.6,0,256s114.6,256,256,256s256-114.6,256-256C511.8,114.7,397.3,0.2,256,0z
			 M256,494.9C124,494.9,17.1,388,17.1,256S124,17.1,256,17.1S494.9,124,494.9,256C494.8,387.9,387.9,494.8,256,494.9z"/>
		<path id="Shape_1_" class="st0" d="M256,51.2c-104.7,0-192.6,79-203.7,183.1s58.1,199.9,160.5,221.9s204.9-36.6,237.7-136.1
			c1.1-3.3,0-7-2.6-9.2l-26.6-22.2c-1.9-1.6-3.1-4-3.1-6.6v-52.3c0-2.5,1.1-4.9,3.1-6.6l26.6-22.2c2.7-2.2,3.7-5.9,2.6-9.2
			C423,107.8,344.5,51,256,51.2z M432.4,320.2c-30.9,85-118.1,135.9-207.4,120.9c-89.2-14.9-155.1-91.4-156.7-181.9
			c11.1-11.4,65.6-63,145-63c43.9,0,66.1,15,89.5,30.9c28.3,21.8,62.5,34.7,98.2,36.9v18.1c0,7.6,3.4,14.8,9.2,19.6L432.4,320.2z
			 M410.3,210.2c-5.8,4.8-9.2,12-9.2,19.6V247c-43.3-3.2-65.3-18.2-88.6-34c-24.6-16.6-49.9-33.8-99.1-33.8
			c-53,0.9-104,20.6-143.8,55.6C79.4,148.3,147.4,80,233.9,69.7S402.5,110,432.4,191.8L410.3,210.2z"/>
		<path id="Shape_2_" class="st0" d="M179.2,256c-18.9,0-34.1,15.3-34.1,34.1c0,18.9,15.3,34.1,34.1,34.1s34.1-15.3,34.1-34.1
			C213.3,271.3,198.1,256,179.2,256z M179.2,307.2c-9.4,0-17.1-7.6-17.1-17.1c0-9.4,7.6-17.1,17.1-17.1c9.4,0,17.1,7.6,17.1,17.1
			S188.6,307.2,179.2,307.2z"/>
		<path id="Shape_3_" class="st0" d="M324.3,307.2c-17.3,0-32.8,10.4-39.4,26.3s-3,34.3,9.2,46.5s30.6,15.9,46.5,9.2
			c15.9-6.6,26.3-22.2,26.3-39.4C366.9,326.3,347.8,307.2,324.3,307.2z M324.3,375.5c-14.1,0-25.6-11.5-25.6-25.6
			s11.5-25.6,25.6-25.6s25.6,11.5,25.6,25.6S338.4,375.5,324.3,375.5z"/>
		<circle id="Oval" class="st0" cx="290.1" cy="273.1" r="8.5"/>
		<circle id="Oval_1_" class="st0" cx="221.9" cy="230.4" r="8.5"/>
		<circle id="Oval_2_" class="st0" cx="247.5" cy="409.6" r="8.5"/>
		<circle id="Oval_3_" class="st0" cx="238.9" cy="332.8" r="8.5"/>
		<circle id="Oval_4_" class="st0" cx="110.9" cy="281.6" r="8.5"/>
		<circle id="Oval_5_" class="st0" cx="153.6" cy="358.4" r="8.5"/>
		<path id="Shape_4_" class="st0" d="M443.7,238.9c-4.7,0-8.5,3.8-8.5,8.5v17.1c0,4.7,3.8,8.5,8.5,8.5s8.5-3.8,8.5-8.5v-17.1
			C452.3,242.8,448.4,238.9,443.7,238.9z"/>
	</g>
</g>
</svg>
