<?xml version="1.0" encoding="utf-8"?>
<!-- Generator: Adobe Illustrator 24.1.0, SVG Export Plug-In . SVG Version: 6.00 Build 0)  -->
<svg version="1.1" id="Capa_1" xmlns="http://www.w3.org/2000/svg" xmlns:xlink="http://www.w3.org/1999/xlink" x="0px" y="0px"
	 viewBox="0 0 512 512" style="enable-background:new 0 0 512 512;" xml:space="preserve">
<style type="text/css">
	.st0{fill:#FFFFFF;}
</style>
<g id="Page-1">
	<g id="_x30_09---Laundry">
		<path id="Shape" class="st0" d="M486.4,0H204.8c-14.1,0-25.6,11.5-25.6,25.6v247.5h-162c-5.1,0-10,2.2-13.2,6.2s-4.6,9.1-3.6,14.1
			l35.8,184c4,20.2,21.7,34.7,42.3,34.6h158.9c20.5,0.1,38.3-14.4,42.3-34.6l8.2-42.2h198.6c14.1,0,25.6-11.5,25.6-25.6v-384
			C512,11.5,500.5,0,486.4,0z M494.9,25.6v59.7H324.3V17.1h162.1C491.1,17.1,494.9,20.9,494.9,25.6z M204.8,17.1h102.4v68.3H196.3
			V25.6C196.3,20.9,200.1,17.1,204.8,17.1z M196.3,102.4H495v264.5H301.1l4.7-24.2c12.7,4.7,26.2,7.2,39.8,7.2
			c50.1-0.1,94.4-32.5,109.6-80.3s-2.3-99.8-43.3-128.8s-95.9-28-135.8,2.2c-40,30.2-55.8,82.8-39.1,130.1h-40.7L196.3,102.4z
			 M255.4,273.1c-18.5-43.2-3.9-93.6,34.9-120.1s91-22,124.6,10.9s39.3,85,13.5,124.4s-75.7,55.1-119.4,37.5l3.3-17.1
			c32.8,14.7,71.3,6.1,94.7-21.2c23.4-27.3,26-66.7,6.5-96.8s-56.6-43.8-91.1-33.6s-58.1,41.9-58,77.8c0,4.7,0.4,9.5,1.2,14.1
			c1.6,8.5,4.5,16.7,8.6,24.3h-18.8V273.1z M281.8,238.4c-0.1-1.2-0.2-2.5-0.2-3.7c0.1-32.5,24.5-59.7,56.7-63.4
			c32.2-3.7,62.2,17.3,69.6,48.9c-10.3-4.3-21.3-6.7-32.4-6.8c-12.5,0.2-24.7,3.6-35.4,9.9C322.1,232.8,302.1,238,281.8,238.4
			L281.8,238.4z M294.6,273.1c-4.1-5.4-7.3-11.4-9.5-17.8c21.8-0.8,43.2-6.5,62.5-16.8c8.4-5.1,18-7.9,27.8-8.1
			c11.9,0.3,23.5,3.4,33.9,9.1c-1.5,21.6-13.9,40.9-32.9,51.2c-18.9,10.4-41.9,10.5-60.9,0.2c0.3-4.7-1.4-9.3-4.6-12.6
			c-3.2-3.4-7.7-5.3-12.4-5.3L294.6,273.1z M249.8,290.1l48.9-0.1l-16.3,83.8l-5.7,29c-5-2.6-9.8-5.6-14.4-8.8
			c-15.5-12.3-34.9-18.8-54.7-18.5c-19.8-0.3-39.1,6.3-54.6,18.6c-12.7,10.4-28.6,15.9-45,15.6c-16.3,0.3-32.3-5.2-44.9-15.6
			c-8.7-6.6-18.4-11.6-28.7-15l-17.3-88.9h232.7V290.1z M262.8,474.2c-2.4,12.1-13.1,20.8-25.5,20.7H78.4
			c-12.4,0.1-23.1-8.6-25.5-20.7l-14.6-75.3c5.3,2.7,10.3,5.8,15.2,9.2C69,420.4,88.2,427,108,426.7c19.8,0.3,39.1-6.3,54.7-18.6
			c12.6-10.4,28.6-15.9,44.9-15.6c16.4-0.3,32.3,5.2,45,15.6c6.5,4.7,13.4,8.7,20.7,12l-1,4.9L262.8,474.2z M486.4,418.1H291.1
			l6.7-34.1H495v25.6C494.9,414.3,491.1,418.1,486.4,418.1z"/>
		<path id="Shape_1_" class="st0" d="M221.9,59.7h59.7c4.7,0,8.5-3.8,8.5-8.5s-3.8-8.5-8.5-8.5h-59.7c-4.7,0-8.5,3.8-8.5,8.5
			S217.2,59.7,221.9,59.7z"/>
		<circle id="Oval" class="st0" cx="426.7" cy="51.2" r="8.5"/>
		<circle id="Oval_1_" class="st0" cx="460.8" cy="51.2" r="8.5"/>
		<path id="Shape_2_" class="st0" d="M51.2,324.3h25.6c4.7,0,8.5-3.8,8.5-8.5s-3.8-8.5-8.5-8.5H51.2c-4.7,0-8.5,3.8-8.5,8.5
			C42.7,320.4,46.5,324.3,51.2,324.3z"/>
		<path id="Shape_3_" class="st0" d="M110.9,324.3h153.6c4.7,0,8.5-3.8,8.5-8.5s-3.8-8.5-8.5-8.5H110.9c-4.7,0-8.5,3.8-8.5,8.5
			C102.4,320.4,106.2,324.3,110.9,324.3z"/>
	</g>
</g>
</svg>
