<?xml version="1.0" encoding="utf-8"?>
<!-- Generator: Adobe Illustrator 24.1.0, SVG Export Plug-In . SVG Version: 6.00 Build 0)  -->
<svg version="1.1" id="Capa_1" xmlns="http://www.w3.org/2000/svg" xmlns:xlink="http://www.w3.org/1999/xlink" x="0px" y="0px"
	 viewBox="0 0 512 512" style="enable-background:new 0 0 512 512;" xml:space="preserve">
<style type="text/css">
	.st0{fill:#FFFFFF;}
</style>
<g id="XMLID_1149_">
	<g id="XMLID_661_">
		<path id="XMLID_1123_" class="st0" d="M151,390h-48c-5.5,0-10,4.5-10,10v48c0,5.5,4.5,10,10,10h48c5.5,0,10-4.5,10-10v-48
			C161,394.5,156.5,390,151,390z M141,438h-28v-28h28V438z"/>
		<path id="XMLID_1349_" class="st0" d="M161,304c0-5.5-4.5-10-10-10h-48c-5.5,0-10,4.5-10,10v48c0,5.5,4.5,10,10,10h48
			c5.5,0,10-4.5,10-10V304z M141,342h-28v-28h28V342z"/>
		<path id="XMLID_1350_" class="st0" d="M302,226h-98c-5.5,0-10,4.5-10,10s4.5,10,10,10h98c5.5,0,10-4.5,10-10S307.5,226,302,226z"
			/>
		<path id="XMLID_1352_" class="st0" d="M158.1,217.1c-3.9-3.9-10.2-3.9-14.1,0l-24.8,24.8l-9.1-9.1c-3.9-3.9-10.2-3.9-14.1,0
			s-3.9,10.2,0,14.1l16.1,16.1c1.9,1.9,4.4,2.9,7.1,2.9s5.2-1.1,7.1-2.9l31.9-31.9C162,227.3,162,221,158.1,217.1z"/>
		<path id="XMLID_1354_" class="st0" d="M302,130h-98c-5.5,0-10,4.5-10,10s4.5,10,10,10h98c5.5,0,10-4.5,10-10S307.5,130,302,130z"
			/>
		<path id="XMLID_1355_" class="st0" d="M158.1,121.1c-3.9-3.9-10.2-3.9-14.1,0l-24.8,24.8l-9.1-9.1c-3.9-3.9-10.2-3.9-14.1,0
			s-3.9,10.2,0,14.1l16.1,16.1c2,2,4.5,2.9,7.1,2.9s5.1-1,7.1-2.9l31.9-31.9C162,131.3,162,125,158.1,121.1z"/>
		<path id="XMLID_1854_" class="st0" d="M502,322h-56.7c-4.8-27.2-28.5-48-57.1-48H384v-55.9c0-5.5-4.5-10-10-10s-10,4.5-10,10V274
			h-3.8c-28.6,0-52.4,20.8-57.1,48H204c-5.5,0-10,4.5-10,10s4.5,10,10,10h34v37.9c0,5.5,4.5,10,10,10h9.1l4.6,28.1H204
			c-5.5,0-10,4.5-10,10s4.5,10,10,10h60.9l8.8,54H20V47h85.4c4.4,15.6,18.7,27,35.6,27h102c16.9,0,31.2-11.4,35.6-27H364v81.1
			c0,5.5,4.5,10,10,10s10-4.5,10-10V37c0-5.5-4.5-10-10-10h-95.4C274.2,11.4,259.9,0,243,0H141c-16.9,0-31.2,11.4-35.6,27H10
			C4.5,27,0,31.5,0,37v465c0,5.5,4.5,10,10,10h453c4.9,0,9.1-3.6,9.9-8.4l18.4-113.7H502c5.5,0,10-4.5,10-10V332
			C512,326.5,507.5,322,502,322L502,322z M141,20h102c9.4,0,17,7.6,17,17l0,0l0,0c0,9.4-7.6,17-17,17H141c-9.4,0-17-7.6-17-17
			S131.6,20,141,20z M492,369.9H258V342h234V369.9z M360.2,294h28c17.5,0,32.3,11.9,36.7,28H323.5C328,305.9,342.7,294,360.2,294
			L360.2,294z M454.5,492H374h-80.1l-16.6-102.1H471L454.5,492z"/>
		<path id="XMLID_1870_" class="st0" d="M326.4,468.4c5.5,0,10-4.5,10-10v-34.9c0-5.5-4.5-10-10-10s-10,4.5-10,10v34.9
			C316.4,463.9,320.8,468.4,326.4,468.4z"/>
		<path id="XMLID_1875_" class="st0" d="M374.2,468.4c5.5,0,10-4.5,10-10v-34.9c0-5.5-4.5-10-10-10s-10,4.5-10,10v34.9
			C364.2,463.9,368.7,468.4,374.2,468.4z"/>
		<path id="XMLID_1876_" class="st0" d="M422.1,468.4c5.5,0,10-4.5,10-10v-34.9c0-5.5-4.5-10-10-10s-10,4.5-10,10v34.9
			C412.1,463.9,416.6,468.4,422.1,468.4z"/>
		<path id="XMLID_1877_" class="st0" d="M374,163.1c-2.6,0-5.2,1.1-7.1,2.9c-1.9,1.9-2.9,4.4-2.9,7.1c0,2.6,1.1,5.2,2.9,7.1
			s4.4,2.9,7.1,2.9s5.2-1.1,7.1-2.9s2.9-4.4,2.9-7.1c0-2.6-1.1-5.2-2.9-7.1C379.2,164.2,376.6,163.1,374,163.1z"/>
	</g>
</g>
</svg>
