<?xml version="1.0" encoding="utf-8"?>
<!-- Generator: Adobe Illustrator 24.1.0, SVG Export Plug-In . SVG Version: 6.00 Build 0)  -->
<svg version="1.1" id="outline" xmlns="http://www.w3.org/2000/svg" xmlns:xlink="http://www.w3.org/1999/xlink" x="0px" y="0px"
	 viewBox="0 0 512 512" style="enable-background:new 0 0 512 512;" xml:space="preserve">
<style type="text/css">
	.st0{fill:#FFFFFF;}
</style>
<path class="st0" d="M496,376c0-20.3-12.8-38.4-32-45.2V312c0-3.7-2.5-6.9-6.1-7.8c-18.7-4.7-34.9-16.1-45.6-32.1l-5.4-8.1H424
	c3.3,0,6.2-2,7.4-5l16-40c1.6-4.1-0.4-8.8-4.5-10.4c-0.9-0.4-2-0.6-3-0.6h-51.7L376,189.6V184c0-13.2-10.8-24-24-24h-16
	c-4.4,0-8,3.6-8,8l0,0v8c0,13.2,10.8,24,24,24h11.7l5.3,8h-1c-1.6,0-3.2,0.5-4.5,1.4c-2.9-1.7-6.1-2.8-9.4-3.2l-42.1-5.3v-39.3
	c0-9.3-3.1-18.3-8.8-25.6c13.7-0.1,24.8-11.2,24.8-25V76c0-24.3-19.7-44-44-44s-44,19.7-44,44v12c0,6.8,2.9,13.3,8,17.9v20.7
	c-7.2,4.6-12.7,11.2-16,19.1l-22.2,53.2c-6.5,15.6-9.9,32.3-9.8,49.2c0,8.7,2.8,17.1,8,24h-32c-4.4,0-8,3.6-8,8l0,0h-6.1l21.9-102.3
	c0.9-4.3-1.8-8.6-6.1-9.5c-0.6-0.1-1.1-0.2-1.7-0.2h-8c0-17.7-14.3-32-32-32H56c-17.7,0-32,14.3-32,32c-4.4,0-8,3.6-8,8
	c0,0.6,0.1,1.1,0.2,1.7L38.1,280H24c-4.4,0-8,3.6-8,8l0,0v24c0,4.4,3.6,8,8,8l0,0h40v8c0,2.1,0.8,4.2,2.3,5.7l16,16l0,0
	c0.1,0.1,0.2,0.2,0.3,0.3l20.9,18.5c-30.6-4.2-58.9,17.3-63,47.9s17.3,58.9,47.9,63c20.8,2.8,41.5-6.2,53.5-23.5h191.8
	c19.2,0,37.7-7.7,51.2-21.4c5.8,30.4,35.2,50.3,65.5,44.4s50.3-35.2,44.4-65.5c-2.2-11.2-7.7-21.5-15.9-29.5h8.9
	C492.4,384,496,380.4,496,376L496,376z M352,184c-4.4,0-8-3.6-8-8h8c4.4,0,8,3.6,8,8H352z M375.7,335.3l-13.3,35.4l-9.2-6.1
	l16.3-59.9L375.7,335.3z M296,336v-32c0-5.6-1.5-11.1-4.3-16H312v79l-6.2,25h-32.7C287.8,377.1,296,357,296,336z M326.2,376h15.3
	l15.1,10.1l-2.2,5.9h-32.2L326.2,376z M376,224h20.2l-9.6,24H376V224z M418.6,248h-14.8l9.6-24h14.8L418.6,248z M360,231
	c0,5-4,9-9,9h-15v-19.9l16.1,2C356.6,222.6,360,226.5,360,231z M256,76c0-15.5,12.5-28,28-28c13.9,0,25.7,10.2,27.7,24H280
	c-4.4,0-8,3.6-8,8l0,0v8c0,4.4-3.6,8-8,8s-8-3.6-8-8V76z M264,112c13.2,0,24-10.8,24-24h24v23c0,5-4,9-9,9c-2.4,0-4.7-0.9-6.3-2.6
	l-11-11l-11.3,11.3l2.9,2.9c-4.4-0.7-8.9-0.8-13.3-0.1L264,112L264,112z M246.8,151.8c5.4-13.1,20.4-19.2,33.5-13.8
	c9.5,4,15.8,13.3,15.8,23.6v12.5l-8.8-17.7l-14.3,7.2l24,48c1.2,2.4,3.5,4,6.2,4.4l17,2.1V240h-24.6c-7.3,0-14.2-3.3-18.7-9
	l-22.4-28L242,213l8.8,11h-32c1.4-6.5,3.4-12.9,6-19.1L246.8,151.8z M216,248c0-2.7,0.1-5.3,0.3-8h47.1l0.8,1
	c7.6,9.5,19.1,15,31.2,15H360v22.9L337.9,360H328v-80c0-4.4-3.6-8-8-8l0,0h-80C226.8,272,216,261.2,216,248z M264,288
	c8.8,0,16,7.2,16,16h-96v-16H264z M152,168h-24c0-4.4-3.6-8-8-8l0,0h-16c0-2.7-0.5-5.4-1.4-8H136C144.8,152,152,159.2,152,168z
	 M125.2,184h9.3l-5.3,32h-9.8L125.2,184z M64,208v-32h16v32H64z M80,224h8c4.4,0,8-3.6,8-8l0,0v-40h14.4l-13.1,72H80V224z M56,152
	h24c4.4,0,8,3.6,8,8H56c-4.4,0-8,3.6-8,8l0,0h-8C40,159.2,47.2,152,56,152z M33.9,184H48v32c0,4.4,3.6,8,8,8l0,0h8v32
	c0,4.4,3.6,8,8,8l0,0h32c3.9,0,7.2-2.8,7.9-6.6l4.6-25.4H136c3.9,0,7.2-2.8,7.9-6.7l6.9-41.3h15.3l-20.6,96h-91L33.9,184z M32,296
	h136v8H32V296z M80,320h11.1l-5.2,10.5l-5.8-5.8L80,320L80,320z M108.9,320H280v16c0,35.3-28.7,64-64,64h-53l-65.1-57.9L108.9,320z
	 M128,432H96c-4.4,0-8-3.6-8-8s3.6-8,8-8h32V432z M96,464c-22.1,0-40-17.9-40-40s17.9-40,40-40c12.6,0,24.4,5.9,32,16H96
	c-13.3,0-24,10.7-24,24s10.7,24,24,24h32C120.4,458,108.6,464,96,464z M200,440h-56v-24h56V440z M333.8,440H216v-24
	c12.1,0,24-2.7,34.8-8H360c3.3,0,6.3-2.1,7.5-5.2l24-64c0.5-1.4,0.6-2.9,0.4-4.4L377.8,264h10l11.3,17c11.7,17.5,28.9,30.6,49,37v10
	h-24c-3.2,0-6.1,1.9-7.4,4.8L385.3,406C376.5,426.7,356.2,440,333.8,440z M418.8,390.1l26.6,26.6c3.5,3.5,3.5,9.2,0,12.7
	s-9.2,3.5-12.7,0l-26.6-26.6C409.3,397.7,413.7,393.3,418.8,390.1L418.8,390.1z M480,424c0,22.1-17.9,40-40,40s-40-17.9-40-40
	c0-1.5,0.1-3,0.3-4.5l21.1,21.1c9.7,9.8,25.5,9.8,35.3,0c9.8-9.7,9.8-25.5,0-35.3l0,0l-21.1-21.1c21.9-2.5,41.7,13.3,44.2,35.2
	C479.9,421,480,422.5,480,424z M419,368l10.3-24H448c14.6,0,27.3,9.9,31,24H419z"/>
</svg>
