<?xml version="1.0" encoding="utf-8"?>
<!-- Generator: Adobe Illustrator 24.1.0, SVG Export Plug-In . SVG Version: 6.00 Build 0)  -->
<svg version="1.1" id="Capa_1" xmlns="http://www.w3.org/2000/svg" xmlns:xlink="http://www.w3.org/1999/xlink" x="0px" y="0px"
	 viewBox="0 0 512 512" style="enable-background:new 0 0 512 512;" xml:space="preserve">
<style type="text/css">
	.st0{fill:#FFFFFF;}
</style>
<g id="Page-1">
	<g id="_x30_25---Ironing">
		<path id="Shape" class="st0" d="M469.3,281.6c23.6,0,42.7-19.1,42.7-42.7s-19.1-42.7-42.7-42.7h-10.9c-1.6-2.7-3.9-4.9-6.7-6.4
			C446.7,59.2,400,14.1,385.6,3.4c-6-4.5-14.2-4.5-20.2,0c-14.4,10.8-61.1,55.8-66.2,186.5c-2.8,1.5-5.1,3.7-6.7,6.4h-71.9
			c-1.7-6.6-5.4-12.6-10.6-17.1c7.5-6.4,11.8-15.8,11.8-25.6s-4.3-19.2-11.8-25.6c7.5-6.4,11.8-15.8,11.8-25.6s-4.3-19.2-11.8-25.6
			c10.8-9.3,14.7-24.3,9.7-37.7s-17.7-22.1-32-22H93.9c-14.2-0.1-27,8.7-32,22.1s-1.1,28.4,9.6,37.7c-7.5,6.4-11.8,15.8-11.8,25.6
			S64,121.6,71.5,128c-7.5,6.4-11.8,15.8-11.8,25.6s4.3,19.2,11.8,25.6c-5.2,4.5-8.9,10.4-10.6,17.1H42.7
			C19.1,196.3,0,215.4,0,238.9s19.1,42.7,42.7,42.7h71L210,388.3l-65.5,72.5h-33.6c-14.1,0-25.6,11.5-25.6,25.6S96.8,512,110.9,512
			h102.4c10.6,0,20.1-6.5,23.9-16.3s1.1-21.1-6.8-28.2l25.5-28.3l25.5,28.3c-7.9,7.1-10.6,18.3-6.8,28.2s13.3,16.4,23.9,16.3h102.4
			c14.1,0,25.6-11.5,25.6-25.6s-11.5-25.6-25.6-25.6h-33.6L302,388.3l96.4-106.7h19.8v51.2c0,18.9,15.3,34.1,34.1,34.1
			c9.4,0,17.1,7.6,17.1,17.1v25.6c0,18.9,15.3,34.1,34.1,34.1c4.7,0,8.5-3.8,8.5-8.5s-3.8-8.5-8.5-8.5c-9.4,0-17.1-7.6-17.1-17.1
			V384c0-18.9-15.3-34.1-34.1-34.1c-9.4,0-17.1-7.6-17.1-17.1v-51.2L469.3,281.6L469.3,281.6z M307.2,204.8h136.5v25.6H307.2V204.8z
			 M375.4,17.1c9.1,6.8,53.8,46.5,59.2,170.7H316.3C321.8,63.6,366.5,23.8,375.4,17.1z M76.8,51.2c0-9.4,7.6-17.1,17.1-17.1h93.9
			c9.4,0,17.1,7.6,17.1,17.1s-7.6,17.1-17.1,17.1H93.9C84.4,68.3,76.8,60.6,76.8,51.2z M76.8,102.4c0-9.4,7.6-17.1,17.1-17.1h93.9
			c9.4,0,17.1,7.6,17.1,17.1s-7.6,17.1-17.1,17.1H93.9C84.4,119.5,76.8,111.8,76.8,102.4z M76.8,153.6c0-9.4,7.6-17.1,17.1-17.1
			h93.9c9.4,0,17.1,7.6,17.1,17.1c0,9.4-7.6,17.1-17.1,17.1H93.9C84.4,170.7,76.8,163,76.8,153.6z M187.7,187.7
			c9.4,0,17.1,7.6,17.1,17.1c0,9.4-7.6,17.1-17.1,17.1H93.9c-9.4,0-17.1-7.6-17.1-17.1c0-9.4,7.6-17.1,17.1-17.1H187.7z M17.1,238.9
			c0-6.8,2.7-13.3,7.5-18.1s11.3-7.5,18.1-7.5H61c3.9,15,17.4,25.5,32.9,25.6h93.9c15.5-0.1,29-10.6,32.9-25.6h69.5v17.1
			c0,9.4,7.6,17.1,17.1,17.1h136.5c9.4,0,17.1-7.6,17.1-17.1v-17.1h8.5c14.1,0,25.6,11.5,25.6,25.6s-11.5,25.6-25.6,25.6H42.7
			C28.5,264.5,17.1,253.1,17.1,238.9z M306.3,281.6L256,337.3l-50.3-55.7L306.3,281.6L306.3,281.6z M213.3,494.9H110.9
			c-4.7,0-8.5-3.8-8.5-8.5s3.8-8.5,8.5-8.5h102.4c4.7,0,8.5,3.8,8.5,8.5S218,494.9,213.3,494.9z M409.6,486.4c0,4.7-3.8,8.5-8.5,8.5
			H298.7c-4.7,0-8.5-3.8-8.5-8.5s3.8-8.5,8.5-8.5h102.4C405.8,477.9,409.6,481.7,409.6,486.4z M284.2,382.5c-2.9,3.2-2.9,8.2,0,11.4
			l60.3,66.8h-45.8h-0.2l-36.2-40c-1.7-1.7-3.9-2.7-6.3-2.7c-2.4,0-4.7,1-6.3,2.7l-36.2,40h-0.2h-45.8l60.3-66.8
			c2.9-3.2,2.9-8.2,0-11.4l-91.2-100.9h46.1l67,74.2c1.6,1.8,3.9,2.8,6.3,2.8s4.7-1,6.3-2.8l67-74.2h46L284.2,382.5z"/>
		<circle id="Oval" class="st0" cx="341.3" cy="162.1" r="8.5"/>
		<circle id="Oval_1_" class="st0" cx="256" cy="392.5" r="8.5"/>
		<circle id="Oval_2_" class="st0" cx="349.9" cy="119.5" r="8.5"/>
		<circle id="Oval_3_" class="st0" cx="358.4" cy="76.8" r="8.5"/>
		<circle id="Oval_4_" class="st0" cx="409.6" cy="162.1" r="8.5"/>
		<circle id="Oval_5_" class="st0" cx="401.1" cy="119.5" r="8.5"/>
		<circle id="Oval_6_" class="st0" cx="392.5" cy="76.8" r="8.5"/>
	</g>
</g>
</svg>
