<?xml version="1.0" encoding="utf-8"?>
<!-- Generator: Adobe Illustrator 24.1.0, SVG Export Plug-In . SVG Version: 6.00 Build 0)  -->
<svg version="1.1" id="Capa_1" xmlns="http://www.w3.org/2000/svg" xmlns:xlink="http://www.w3.org/1999/xlink" x="0px" y="0px"
	 viewBox="0 0 512 512" style="enable-background:new 0 0 512 512;" xml:space="preserve">
<style type="text/css">
	.st0{fill:#FFFFFF;}
</style>
<g id="Page-1">
	<g id="_x30_07---Steam-Iron">
		<path id="Shape" class="st0" d="M29.9,298.7H431c16.5,0,29.9-13.4,29.9-29.9s-13.4-29.9-29.9-29.9h-11.6
			c2.9-11.5,11.5-20.6,22.8-24.1c10.9-3.2,18.5-13.1,18.7-24.5V94.7c19.9,4.1,34.1,21.5,34.1,41.8v153.6c0,4.7,3.8,8.5,8.5,8.5
			s8.5-3.8,8.5-8.5V136.5c-0.1-29.7-21.8-54.8-51.2-59.1v-9.2c-0.1-11.7-8.1-21.9-19.5-24.7l-11-27.4C426.5,6.4,417.1,0,406.6,0
			h-45.2c-10.5,0-19.9,6.4-23.8,16.1L327,42.7h-11.3c-2.6,0-250.9,2.4-297.3,198.6c-13.1,5.5-20.6,19.5-17.8,33.4
			C3.4,288.6,15.6,298.7,29.9,298.7L29.9,298.7z M353.5,22.4c1.3-3.2,4.4-5.4,7.9-5.4h45.2c3.5,0,6.6,2.1,7.9,5.4l8.1,20.2h-77.2
			L353.5,22.4z M315.7,59.7h119.5c4.7,0,8.5,3.8,8.5,8.5v122.1c-0.2,3.9-2.9,7.3-6.7,8.2c-18.5,5.7-32.1,21.3-35.3,40.4H36.6
			C83.7,62.2,313.4,59.7,315.7,59.7z M29.9,256H431c7.1,0,12.8,5.7,12.8,12.8c0,7.1-5.7,12.8-12.8,12.8H29.9
			c-7.1,0-12.8-5.7-12.8-12.8S22.8,256,29.9,256L29.9,256z"/>
		<path id="Shape_1_" class="st0" d="M69.1,221.1c2,1,4.4,1.1,6.5,0.3s3.9-2.4,4.8-4.4c18.2-37.2,48.4-67.4,85.6-85.6
			c4.2-2.2,5.8-7.3,3.6-11.5s-7.3-5.8-11.5-3.6c-40.6,19.9-73.3,52.8-93.1,93.4C63.1,214,64.9,219,69.1,221.1z"/>
		<path id="Shape_2_" class="st0" d="M247.5,187.7h145.1c14.1,0,25.6-11.5,25.6-25.6v-42.7c0-14.1-11.5-25.6-25.6-25.6h-92.9
			c-5.9,0-11.6,2-16.2,5.8l-52.2,42.7c-8.4,6.8-11.5,18.2-7.9,28.4S236.6,187.7,247.5,187.7L247.5,187.7z M298.7,170.7l10.2-13.7
			c1.6-2.1,4.1-3.4,6.8-3.4h34.1c2.7,0,5.2,1.3,6.8,3.4l10.2,13.7H298.7z M242.1,155.5l52.1-42.7c1.5-1.2,3.4-1.9,5.4-1.9h92.9
			c4.7,0,8.5,3.8,8.5,8.5v42.7c0,4.7-3.8,8.5-8.5,8.5h-4.3l-17.9-23.9c-4.8-6.4-12.4-10.2-20.5-10.2h-34.1
			c-8.1,0-15.6,3.8-20.5,10.2l-17.9,23.9h-29.9c-3.6,0-6.8-2.3-8-5.7C238.2,161.6,239.3,157.8,242.1,155.5L242.1,155.5z"/>
		<circle id="Oval" class="st0" cx="187.7" cy="110.9" r="8.5"/>
		<path id="Shape_3_" class="st0" d="M59.7,460.8c5.6,0,11.1-0.8,16.5-2.3c17.1,32.6,56.9,45.7,90,29.6
			c14.5,15.3,34.6,23.9,55.6,23.9s41.2-8.6,55.6-23.9c33.1,16.1,73,3,90-29.6c5.4,1.5,10.9,2.3,16.5,2.3c33,0,59.7-26.7,59.7-59.7
			S417,341.3,384,341.3c-4.7,0-8.5,3.8-8.5,8.5s3.8,8.5,8.5,8.5c17.4,0,33.1,10.5,39.6,26.7s2.6,34.7-10,46.7
			c-12.6,12.1-31.2,15.3-47.1,8.1c-2.1-1-4.6-1-6.8-0.1c-2.2,0.9-3.9,2.7-4.7,4.9c-5.4,14.4-16.9,25.5-31.5,30.5s-30.5,3-43.5-5.1
			c-3.7-2.3-8.5-1.5-11.2,2c-11.3,14.5-28.6,22.9-47,22.9s-35.7-8.5-47-22.9c-2.7-3.4-7.5-4.3-11.2-2c-13,8.2-29,10-43.5,5.1
			S94,459,88.6,444.6c-0.8-2.2-2.5-4-4.7-4.9s-4.6-0.9-6.8,0.1c-15.9,7.2-34.5,3.9-47.1-8.1c-12.6-12.1-16.5-30.6-10-46.7
			c6.5-16.2,22.2-26.7,39.6-26.7c4.7,0,8.5-3.8,8.5-8.5s-3.8-8.5-8.5-8.5c-33,0-59.7,26.7-59.7,59.7S26.7,460.8,59.7,460.8
			L59.7,460.8z"/>
		<path id="Shape_4_" class="st0" d="M160.2,318.9c-3-3.6-8.4-4.2-12-1.2l-93.9,76.8c-2.4,1.9-3.6,5-3.1,8s2.6,5.6,5.4,6.7
			c2.9,1.1,6.1,0.5,8.5-1.5l93.9-76.8C162.6,327.9,163.2,322.5,160.2,318.9z"/>
		<path id="Shape_5_" class="st0" d="M384,409.6c3.6,0,6.8-2.3,8-5.7c1.2-3.4,0.2-7.2-2.6-9.5l-93.9-76.8c-3.7-2.9-9-2.3-11.9,1.3
			c-3,3.6-2.5,8.9,1.1,11.9l93.9,76.8C380.1,408.9,382,409.6,384,409.6L384,409.6z"/>
		<path id="Shape_6_" class="st0" d="M213.3,324.3v110.9c0,4.7,3.8,8.5,8.5,8.5s8.5-3.8,8.5-8.5V324.3c0-4.7-3.8-8.5-8.5-8.5
			C217.2,315.7,213.3,319.6,213.3,324.3z"/>
		<path id="Shape_7_" class="st0" d="M132.1,442.5c4,2.4,9.3,1.1,11.7-2.9l25.6-42.7c1.6-2.6,1.7-5.9,0.3-8.6
			c-1.5-2.7-4.3-4.4-7.4-4.4c-3.1,0-5.9,1.6-7.5,4.3l-25.6,42.7C126.8,434.8,128.1,440.1,132.1,442.5L132.1,442.5z"/>
		<path id="Shape_8_" class="st0" d="M277.2,385.2c-4,2.4-5.3,7.7-2.9,11.7l25.6,42.7c1.5,2.7,4.4,4.3,7.5,4.3s5.9-1.7,7.4-4.4
			c1.5-2.7,1.4-6-0.3-8.6l-25.6-42.7C286.5,384.1,281.2,382.8,277.2,385.2L277.2,385.2z"/>
	</g>
</g>
</svg>
