<?xml version="1.0" encoding="utf-8"?>
<!-- Generator: Adobe Illustrator 24.1.0, SVG Export Plug-In . SVG Version: 6.00 Build 0)  -->
<svg version="1.1" id="Capa_1" xmlns="http://www.w3.org/2000/svg" xmlns:xlink="http://www.w3.org/1999/xlink" x="0px" y="0px"
	 viewBox="0 0 512 512" style="enable-background:new 0 0 512 512;" xml:space="preserve">
<style type="text/css">
	.st0{fill:#FFFFFF;}
</style>
<g id="Page-1">
	<g id="_x30_14---Clean-Clothes" transform="translate(-1 -1)">
		<path id="Shape" class="st0" d="M257,142.9c-33.4,0-61.8-15-67.4-35.6c-1.2-4.5-4.2-8.3-8.4-10.5c-4.4-2.3-9.5-2.6-14.2-1
			l-79.9,28.4c-5.6,1.9-10.4,5.8-13.5,10.9l-69,113.6c-5.7,9.2-4.8,21.1,2.1,29.4c13.6,16.5,57.9,32.5,105.1,38.6v153.5
			c0,31.5,77.1,42.7,149.3,42.7c89.5,0,140.8-15.5,140.8-42.7V315.5c43.4-7,92.8-22.3,105.1-37.3c6.9-8.4,7.8-20.2,2.1-29.4
			l-69-113.6c-3.1-5.1-7.8-9-13.5-10.9l-22.7-8.1c11.7-8.8,26-13.3,40.6-12.8c4.7,0,8.5-3.8,8.5-8.5s-3.8-8.5-8.5-8.5
			c-67.2,0-68.3-73.7-68.3-76.8c0.1-4.7-3.7-8.6-8.4-8.6s-8.6,3.7-8.6,8.4v0.1v0.1c0,3.1-0.8,76.8-68.3,76.8c-4.7,0-8.5,3.8-8.5,8.5
			s3.8,8.5,8.5,8.5c11.1-0.2,22.1,2.3,32,7.3C315.5,129.6,288.5,142.9,257,142.9L257,142.9z M425.7,144l69,113.7
			c1.9,3,1.6,6.9-0.7,9.7c-6.5,7.9-43.9,22.8-92,30.9V257c0-4.7-3.8-8.5-8.5-8.5s-8.5,3.8-8.5,8.5v213.3c0,8-31.2,25.6-123.7,25.6
			c-99.7,0-132.3-19-132.3-25.6V257c0-4.7-3.8-8.5-8.5-8.5s-8.5,3.8-8.5,8.5v42.6c-48-6.4-83.8-22.4-92-32.3
			c-2.3-2.8-2.5-6.6-0.6-9.7l69-113.6c1-1.7,2.6-3,4.5-3.6l80.3-28.7c7.7,28.4,42.2,48.3,83.8,48.3c37.1,0,68.4-15.8,80.1-39
			c21.8,22,22.3,57.1,22.3,59.2c-0.1,4.7,3.7,8.6,8.4,8.6c4.7,0.1,8.6-3.7,8.6-8.4v-0.1v-0.1c0.4-17.8,5.6-35.2,15-50.3l29.8,10.6
			C423.1,141.1,424.7,142.3,425.7,144L425.7,144z M367.9,51.9c7,18.5,20.5,33.7,37.9,43c-17.5,9.2-30.9,24.5-37.9,43
			c-7-18.5-20.5-33.7-37.9-43C347.4,85.6,360.9,70.4,367.9,51.9z"/>
		<path id="Shape_1_" class="st0" d="M291.1,316.7c0-2.4,0.9-59.7,51.2-59.7c4.7,0,8.5-3.8,8.5-8.5s-3.8-8.5-8.5-8.5
			c-50.3,0-51.2-57.3-51.2-59.7v-0.1c0-3-1.6-5.9-4.3-7.4s-5.9-1.5-8.5,0s-4.3,4.4-4.2,7.4c0,2.4-0.9,59.7-51.2,59.7
			c-4.7,0-8.5,3.8-8.5,8.5s3.8,8.5,8.5,8.5c50.3,0,51.2,57.3,51.2,59.7v0.1c0,4.7,3.8,8.5,8.6,8.5S291.1,321.4,291.1,316.7
			L291.1,316.7z M256.8,248.5c11.5-7,20.5-17.3,25.8-29.6c5.4,12.3,14.4,22.7,25.8,29.6c-11.5,7-20.5,17.3-25.8,29.6
			C277.2,265.8,268.2,255.5,256.8,248.5z"/>
		<path id="Shape_2_" class="st0" d="M316.7,333.8v17.1c0,4.7,3.8,8.5,8.5,8.5s8.5-3.8,8.5-8.5v-17.1c0-4.7-3.8-8.5-8.5-8.5
			S316.7,329.1,316.7,333.8z"/>
		<path id="Shape_3_" class="st0" d="M325.3,376.5c-4.7,0-8.5,3.8-8.5,8.5v17.1c0,4.7,3.8,8.5,8.5,8.5s8.5-3.8,8.5-8.5V385
			C333.8,380.3,330,376.5,325.3,376.5z"/>
		<path id="Shape_4_" class="st0" d="M359.4,359.4h-17.1c-4.7,0-8.5,3.8-8.5,8.5s3.8,8.5,8.5,8.5h17.1c4.7,0,8.5-3.8,8.5-8.5
			S364.1,359.4,359.4,359.4z"/>
		<path id="Shape_5_" class="st0" d="M308.2,359.4h-17.1c-4.7,0-8.5,3.8-8.5,8.5s3.8,8.5,8.5,8.5h17.1c4.7,0,8.5-3.8,8.5-8.5
			S312.9,359.4,308.2,359.4z"/>
	</g>
</g>
</svg>
