<?xml version="1.0" encoding="utf-8"?>
<!-- Generator: Adobe Illustrator 24.1.0, SVG Export Plug-In . SVG Version: 6.00 Build 0)  -->
<svg version="1.1" id="Capa_1" xmlns="http://www.w3.org/2000/svg" xmlns:xlink="http://www.w3.org/1999/xlink" x="0px" y="0px"
	 viewBox="0 0 512 512" style="enable-background:new 0 0 512 512;" xml:space="preserve">
<style type="text/css">
	.st0{fill:#FFFFFF;}
</style>
<g id="Page-1">
	<g id="_x30_13---Line-Dry" transform="translate(-1)">
		<path id="Shape" class="st0" d="M495.9,25.6h-68.3C427.6,11.5,416.1,0,402,0h-17c-14.1,0-25.6,11.5-25.6,25.6H163.1
			c0-14.1-11.5-25.6-25.6-25.6h-17.1c-14.1,0-25.6,11.5-25.6,25.6H18.1C8.6,25.6,1,33.2,1,42.7v17.1c0,9.4,7.6,17.1,17.1,17.1h76.8
			v43.7l-7.6,2.7c-5.6,1.9-10.4,5.8-13.5,10.9l-69,113.6c-5.7,9.2-4.8,21.1,2.1,29.4c13.6,16.5,57.9,32.5,105.1,38.6v153.5
			c0,31.5,77.1,42.7,149.3,42.7c89.5,0,140.8-15.5,140.8-42.7V314.5c43.4-7,92.8-22.3,105.1-37.3c6.9-8.4,7.8-20.2,2.1-29.4
			l-69-113.6c-2.9-4.8-7.3-8.5-12.6-10.5V76.8H496c9.4,0,17.1-7.6,17.1-17.1v-17C513,33.2,505.4,25.6,495.9,25.6L495.9,25.6z
			 M376.5,25.6c0-4.7,3.8-8.5,8.5-8.5h17.1c4.7,0,8.5,3.8,8.5,8.5V128c0,4.7-3.8,8.5-8.5,8.5H385c-4.7,0-8.5-3.8-8.5-8.5V25.6z
			 M359.4,99.3L347,94.9c-4.7-1.7-9.8-1.4-14.2,0.9c-4.1,2.1-7.2,5.9-8.4,10.4c-5.6,20.7-33.9,35.7-67.4,35.7s-61.8-15-67.4-35.6
			c-1.2-4.5-4.2-8.3-8.4-10.5c-4.4-2.3-9.5-2.6-14.2-1l-3.9,1.4V76.8h196.3L359.4,99.3L359.4,99.3z M359.4,42.7v17.1H163.1V42.7
			H359.4z M111.9,25.6c0-4.7,3.8-8.5,8.5-8.5h17.1c4.7,0,8.5,3.8,8.5,8.5V128c0,4.7-3.8,8.5-8.5,8.5h-17.1c-4.7,0-8.5-3.8-8.5-8.5
			V25.6z M18.1,59.7v-17h76.8v17.1H18.1V59.7z M494.7,256.7c1.9,3,1.6,6.9-0.7,9.7c-6.5,7.9-43.9,22.8-92,30.9V256
			c0-4.7-3.8-8.5-8.5-8.5s-8.5,3.8-8.5,8.5v213.3c0,8-31.2,25.6-123.7,25.6c-99.7,0-132.3-19-132.3-25.6V256c0-4.7-3.8-8.5-8.5-8.5
			s-8.5,3.8-8.5,8.5v42.6c-48-6.4-83.8-22.4-92-32.3c-2.3-2.8-2.5-6.6-0.6-9.7l69-113.6c1-1.7,2.6-3,4.5-3.6l4-1.4
			c4,9.5,13.3,15.7,23.6,15.7h17.1c14.1,0,25.6-11.5,25.6-25.6v-13.7l10-3.7c7.7,28.4,42.2,48.3,83.8,48.3s76.1-19.9,84.2-48
			l18.2,6.5V128c0,14.1,11.5,25.6,25.6,25.6h17.1c9,0,17.3-4.8,21.9-12.6c0.7,0.6,1.2,1.2,1.7,2L494.7,256.7z M495.9,59.7h-68.3v-17
			h68.3L495.9,59.7L495.9,59.7z"/>
		<path id="Shape_1_" class="st0" d="M316.7,362.9c-5.9,0-11.3,3-14.4,8c-0.2,0.3-19.7,31.6-19.7,47.2c0,18.9,15.3,34.1,34.1,34.1
			c18.9,0,34.1-15.3,34.1-34.1c0-15.6-19.5-46.9-19.7-47.2C328.1,366,322.6,362.9,316.7,362.9z M316.7,435.2
			c-9.4,0-17.1-7.6-17.1-17.1c3.4-13.6,9.2-26.5,17.1-38.1c7.9,11.6,13.6,24.5,17.1,38.1C333.8,427.6,326.2,435.2,316.7,435.2z"/>
		<path id="Shape_2_" class="st0" d="M205.8,269.1c-5.9,0-11.3,3-14.4,8c-0.2,0.3-19.7,31.6-19.7,47.2c0,18.9,15.3,34.1,34.1,34.1
			s34.1-15.3,34.1-34.1c0-15.6-19.5-46.9-19.7-47.2C217.1,272.1,211.7,269.1,205.8,269.1z M205.8,341.3c-9.4,0-17.1-7.6-17.1-17.1
			c3.4-13.6,9.2-26.5,17.1-38.1c7.9,11.6,13.6,24.5,17.1,38.1C222.9,333.7,215.2,341.3,205.8,341.3z"/>
	</g>
</g>
</svg>
