<?xml version="1.0" encoding="utf-8"?>
<!-- Generator: Adobe Illustrator 24.1.0, SVG Export Plug-In . SVG Version: 6.00 Build 0)  -->
<svg version="1.1" id="Capa_1" xmlns="http://www.w3.org/2000/svg" xmlns:xlink="http://www.w3.org/1999/xlink" x="0px" y="0px"
	 viewBox="0 0 512 512" style="enable-background:new 0 0 512 512;" xml:space="preserve">
<style type="text/css">
	.st0{fill:#FFFFFF;}
</style>
<g id="Page-1">
	<g id="_x30_26---Wring-Dry">
		<path id="Shape" class="st0" d="M497.6,84.8L357.2,62.7c-0.4-0.1-0.9-0.1-1.3-0.1c-20,0.1-38.9,8.9-51.8,24.2l-88.2-20.4
			c-27.9-6.5-56.8,5.1-72.4,29.1l-122-32.1c-5.1-1.4-10.6-0.2-14.8,3C2.5,69.5,0,74.5,0,79.8v115.4c0,8,5.5,15,13.4,16.7l109.1,24.3
			c4.2,1,8.4,1.5,12.7,1.5c18.2-0.7,35.3-8.6,47.7-22L304.2,238c18,3.3,36.6-0.9,51.6-11.5l136,24.9c5,0.9,10.1-0.4,14-3.7
			c3.9-3.2,6.1-8,6.1-13.1v-133C512,93.2,505.9,86.1,497.6,84.8L497.6,84.8z M494.9,234.7L371,212c3.8-5,6.8-10.4,9.1-16.2
			l11.6-29.5c1.2-2.8,0.7-6.1-1.2-8.5c-1.9-2.4-5-3.6-8-3.1s-5.6,2.5-6.7,5.4l-11.6,29.6c-3.3,8.4-8.7,15.7-15.7,21.3
			c-11.6,9.2-26.6,13-41.2,10.4l-112.4-20.7c2.8-4.5,5.2-9.2,7.2-14.1l10.5-26.8c1.6-4.4-0.6-9.2-4.9-10.9c-4.3-1.7-9.2,0.4-11,4.6
			l-10.6,26.9c-9.3,23.7-34.8,45.4-59.9,39.3L17.1,195.2V79.8L135.6,111l-7,15.8c-0.9,2.1-1,4.4-0.1,6.5c0.8,2.1,2.4,3.8,4.5,4.7
			c1.1,0.5,2.2,0.7,3.4,0.7c3.4,0,6.5-2,7.8-5.1l9.4-21.3c0.5-1.1,1-2.1,1.6-3.1c10.7-20.8,34.1-31.6,56.9-26.3l81.9,19
			c-1.6,3.4-2.9,6.9-3.8,10.6l-8.9,32.1c-0.8,2.9,0,6.1,2.1,8.3s5.3,3,8.2,2.3c3-0.8,5.3-3,6.1-6l8.9-32.1
			c6.1-21.9,25.9-37.1,48.6-37.5l139.7,22L494.9,234.7L494.9,234.7z"/>
		<path id="Shape_1_" class="st0" d="M153.5,388.3c12.3,0,24.2-4.4,33.6-12.4c11.3-9.7,17.7-23.7,17.7-38.6c0-40-35-68.6-42.1-74
			c-5.4-4.1-12.8-4.1-18.2,0c-6.6,5-39.7,32-42,69.9c-2,26.6,16.7,50.3,43.1,54.4C148.2,388.1,150.8,388.3,153.5,388.3z
			 M119.5,334.3c1.7-28.8,27.5-51.1,34-56.4c6.8,5.4,34.1,29.2,34.1,59.5c0,10-4.5,19.4-12.1,25.9c-7.6,6.4-17.7,9.2-27.5,7.6
			C130.5,367.9,118.1,352,119.5,334.3L119.5,334.3z"/>
		<path id="Shape_2_" class="st0" d="M358.3,388.3c12.3,0,24.2-4.4,33.6-12.4c11.3-9.7,17.7-23.7,17.7-38.6c0-40-35-68.6-42.1-74
			c-5.4-4.1-12.8-4.1-18.2,0c-6.6,5-39.7,32-42,69.9c-2,26.6,16.7,50.3,43.1,54.4C353,388.1,355.6,388.3,358.3,388.3L358.3,388.3z
			 M324.3,334.3c1.7-28.8,27.5-51.1,34-56.4c6.8,5.4,34.1,29.2,34.1,59.5c0,10-4.5,19.4-12.1,25.9s-17.7,9.2-27.5,7.6
			C335.3,367.9,322.9,352,324.3,334.3L324.3,334.3z"/>
		<path id="Shape_3_" class="st0" d="M255.9,456.5c10.5,0,20.6-3.7,28.5-10.5c9-7.7,14.2-18.9,14.2-30.7c0-31.8-28.7-54.3-34.5-58.6
			c-4.9-3.6-11.5-3.6-16.4,0c-5.4,3.9-32.5,25.2-34.4,55.3c-1.4,21.8,14.3,41,36,43.9C251.5,456.4,253.7,456.5,255.9,456.5
			L255.9,456.5z M230.5,413.2C231.7,393,249.7,377,256,372c6.5,5.1,25.6,22.2,25.6,43.4c-0.1,6.8-3.1,13.3-8.3,17.7
			c-5.9,5-13.8,7.3-21.5,6C239,437.5,229.6,426.1,230.5,413.2L230.5,413.2z"/>
	</g>
</g>
</svg>
