<?xml version="1.0" encoding="utf-8"?>
<!-- Generator: Adobe Illustrator 24.1.0, SVG Export Plug-In . SVG Version: 6.00 Build 0)  -->
<svg version="1.1" id="Outline" xmlns="http://www.w3.org/2000/svg" xmlns:xlink="http://www.w3.org/1999/xlink" x="0px" y="0px"
	 viewBox="0 0 512 512" style="enable-background:new 0 0 512 512;" xml:space="preserve">
<style type="text/css">
	.st0{fill:#FFFFFF;}
</style>
<g>
	<path class="st0" d="M496,304C496,303.9,496,303.9,496,304c0-17.2-9.6-29.2-28.4-35.7c-14.9-5.2-33.9-6.7-53.9-8.3
		c-12.3-1-24.9-2-36.4-3.9c-22.9-3.8-60-24.5-92.7-42.8c-2.5-1.4-5-2.8-7.5-4.2c-7.4-5-16.7-16.3-25.7-27.2
		c-9.4-11.3-19-23-28.7-30.8c-13.1-10.6-24.9-12.5-35.1-5.8c-19.3,12.9-22,32-20.3,43.8c-1.4,1.2-2.7,2.4-4.1,3.6
		C154,200.9,146.1,208,128,208c-23.8,0-38.1-25.1-44.6-40.1c-4.5-10.6-16.7-15.5-27.3-10.9c-9.3,4-14.4,14-12.1,23.9
		c8,32.6-2,94.2-3.7,104.3l-23.2,38.7c-1.9,3.1-1.4,7.2,1.2,9.8c16.6,16.6,44.8,27.5,83.6,32.2c30.7,3.7,60.5,2.8,74.9,2.3
		c3.1-0.1,5.6-0.2,7.1-0.2c16.3,0,34.2,1.4,54.9,3c29.4,2.2,65.9,5,113.1,5c133.5,0,143.6-68.1,143.9-71
		C496,304.7,496,304.3,496,304L496,304C496,304,496,304,496,304z M196.4,158.7c8.6-5.8,24.3,11.5,38.1,28
		c-14-6.5-25.8-10.6-34.5-10.6c-5.8-0.1-11.5,1-16.9,3.1C183.9,172.8,187.1,164.9,196.4,158.7L196.4,158.7z M461.6,331
		c-15.5,13.2-47.1,29-109.6,29c-46.6,0-82.8-2.8-111.9-5c-21.1-1.6-39.3-3-56.1-3c-1.7,0-4.3,0.1-7.6,0.2
		c-26.8,0.9-106,3.4-142.1-25.7l18.5-30.8c17.6-1.3,88.6-5.4,128.7,7.9c47,15.7,120.7,32.4,186.5,32.4c43.8,0,83.5-10.8,105.4-18.1
		C470.1,322.8,466.1,327.2,461.6,331L461.6,331z M175.4,285.3c-7.1-1.7-14.2-3-21.4-4l30-30l12.7,12.7L175.4,285.3z M250.8,305.9
		c-7-1.5-13.9-3.2-20.5-4.8l25.8-25.8l12.7,12.7L250.8,305.9z M368,320c-32.3,0-66.5-4.2-98.4-10.2l16.1-16.1
		c3.1-3.1,3.1-8.2,0-11.3c0,0,0,0,0,0l-24-24c-3.1-3.1-8.2-3.1-11.3,0c0,0,0,0,0,0l-38,38c-6.9-1.9-13.4-3.9-19.5-5.8l20.8-20.8
		c3.1-3.1,3.1-8.2,0-11.3c0,0,0,0,0,0l-24-24c-3.1-3.1-8.2-3.1-11.3,0c0,0,0,0,0,0l-44.8,44.8c-30.3-2.2-60.6-0.9-76,0.1
		c3.3-21.5,9.5-71.7,2.1-102.2c-0.5-2.6,1.1-5.1,3.7-5.7c2.2-0.5,4.5,0.7,5.4,2.8C87.3,217.5,113.8,224,128,224
		c24.2,0,36.2-10.7,45.8-19.4c7.9-7.1,14.1-12.6,26.2-12.6c4,0,9.7,1.6,16.4,4.3l-14.1,14.1l11.3,11.3l18.4-18.4
		c10.1,4.9,21.2,10.9,32.3,17.1l-14,14l11.3,11.3l17.2-17.2c10.7,6,21.4,11.9,31.9,17.5l-12.4,12.4l11.3,11.3l16.1-16.1
		c7.9,3.9,15.7,7.5,23,10.4l-10.3,10.3l11.3,11.3l15.8-15.8c3,0.9,6.1,1.5,9.2,2.1c12.1,2,25.2,3,37.8,4c38.3,3,62.9,6.2,67,22.9
		C464,304.6,418.3,320,368,320z"/>
	<path class="st0" d="M295.3,117.2c1.8,0,3.4-1.6,3.4-3.7c0-1.8-1.6-3.4-3.4-3.4c-3.1,0-31.5-1-31.5-34.1c0-1.8-1.6-3.4-3.4-3.4
		S257,74.1,257,76c0,33.1-28.3,34.1-31.5,34.1c-0.3,0-0.3,0-0.3,0c-1.8,0.3-3.1,1.6-3.1,3.4s1.6,3.4,3.4,3.4c3.4,0,31.5,1,31.5,34.1
		c0,1.8,1.6,3.4,3.4,3.4c1.6,0.3,3.1-1.3,3.1-3.1c0-33.1,28.3-34.1,31.5-34.1L295.3,117.2L295.3,117.2z M260.1,132.1
		c-4.2-10-11.8-15.5-18.9-18.6c7.6-3.1,14.7-9.2,18.9-18.6c4.2,10,11.8,15.5,18.9,18.6C271.4,116.7,264.3,122.7,260.1,132.1z"/>
	<g>
		<path class="st0" d="M309.4,182c2.7,0,5-2.2,5-5v-7c0-2.7-2.2-5-5-5s-5,2.2-5,5v7C304.5,179.8,306.7,182,309.4,182z"/>
		<path class="st0" d="M309.4,210.1c2.7,0,5-2.2,5-5v-7c0-2.7-2.2-5-5-5s-5,2.2-5,5v7C304.5,207.9,306.7,210.1,309.4,210.1z"/>
		<path class="st0" d="M291.9,192.6h7c2.7,0,5-2.2,5-5c0-2.7-2.2-5-5-5h-7c-2.7,0-5,2.2-5,5C286.9,190.3,289.1,192.6,291.9,192.6z"
			/>
		<path class="st0" d="M320,192.6h7c2.7,0,5-2.2,5-5c0-2.7-2.2-5-5-5h-7c-2.7,0-5,2.2-5,5C315,190.3,317.2,192.6,320,192.6z"/>
	</g>
</g>
</svg>
